<svg id="图层_1" data-name="图层 1" xmlns="http://www.w3.org/2000/svg" xmlns:xlink="http://www.w3.org/1999/xlink" viewBox="0 0 169.65 299.14"><defs><style>.cls-1{fill:none;}.cls-2{clip-path:url(#clip-path);}.cls-3{fill:#63c666;}.cls-4{fill:#541018;}.cls-5{fill:#3c873c;}.cls-6{fill:#f9803d;}</style><clipPath id="clip-path" transform="translate(-64.39 -0.19)"><rect class="cls-1" x="64.29" y="-0.18" width="169.75" height="299.69"/></clipPath></defs><title>arrow_top</title><g class="cls-2"><path class="cls-3" d="M188.2,288.84s-17.57,34-38.95-26.79c2.07,3,42.73,20.87,38.95,26.79Zm0,0" transform="translate(-64.39 -0.19)"/><path class="cls-4" d="M145.92,255.63l4.13,5.85c.6.79,5.92,3.64,11.06,6.37,14.76,7.88,27,14.78,28.23,19.35a2.66,2.66,0,0,1-.27,2.13c-.42.79-5.73,10.53-14.27,9.94-9.19-.64-18.12-13-26.51-36.9Zm29.61,41.68c7.09,0,11.75-8.83,11.79-8.93l0-.07a.65.65,0,0,0,0-.59c-1.07-4.09-17.44-12.86-27.25-18.09-4.06-2.17-7-3.74-8.9-4.89,9.66,26.12,18.16,32.17,23.68,32.54a5.83,5.83,0,0,0,.59,0Zm0,0" transform="translate(-64.39 -0.19)"/><path class="cls-3" d="M110.21,288.85s17.58,34,39-26.79c-2.55,3.41-43.19,21.19-39,26.79Zm0,0" transform="translate(-64.39 -0.19)"/><path class="cls-4" d="M152.31,256.21l-2.18,6.18c-8.39,23.84-17.31,36.26-26.5,36.91-8.45.59-13.74-8.92-14.27-9.92a2.52,2.52,0,0,1-.39-2.05c1-4.33,12.42-10.78,27.29-18.77,5.61-3,11.41-6.11,12.13-7.09Zm-29.42,41.11a4,4,0,0,0,.6,0c5.51-.38,14-6.43,23.64-32.49-2.13,1.31-5.41,3.07-9.93,5.5-10.13,5.44-25.45,13.65-26.28,17.43a.59.59,0,0,0,.08.5l.1.14c.06.14,4.73,8.95,11.79,8.95Zm0,0" transform="translate(-64.39 -0.19)"/><path class="cls-5" d="M149.21,262S134,281.47,110.73,288.62c-21.41,6.6-32.15,3.19-37.48-.58-4.49-3.18-9.67-9.92-7.23-18.71,0,0,6.14,9.65,15.77,2.63,5.9,5.59,36.14,7.78,67.42-9.92Zm0,0" transform="translate(-64.39 -0.19)"/><path class="cls-4" d="M153.1,258.69l-3.1,4c-.15.19-15.65,19.75-39,26.93-21.5,6.62-32.72,3.26-38.35-.72-5.31-3.75-10.09-10.91-7.62-19.8l.6-2.16,1.2,1.92s2.5,3.82,6.57,4.58c2.49.47,5.11-.28,7.78-2.23l.67-.48.6.57c2.51,2.37,10.91,4.48,23.42,3.49a104.48,104.48,0,0,0,42.82-13.57ZM89.4,291.36c5.48,0,12.38-1,21-3.69,16.14-5,28.46-16.05,34.28-22.11a104.75,104.75,0,0,1-38.66,11.16c-10.79.85-20.34-.55-24.31-3.5A11.51,11.51,0,0,1,73,275.34a12.25,12.25,0,0,1-6.48-3.75c-1,7,2.93,12.56,7.27,15.63,3.07,2.18,8,4.14,15.58,4.14Zm0,0" transform="translate(-64.39 -0.19)"/><path class="cls-5" d="M149.21,262s15.19,19.43,38.48,26.58c21.41,6.59,32.15,3.19,37.48-.58,4.5-3.18,9.68-9.92,7.24-18.71,0,0-6.14,9.65-15.77,2.63-5.9,5.59-36.14,7.78-67.43-9.92Zm0,0" transform="translate(-64.39 -0.19)"/><path class="cls-4" d="M145.33,258.69l4.36,2.48a104.24,104.24,0,0,0,42.84,13.57c12.51,1,20.9-1.11,23.41-3.49l.61-.57.67.49c2.68,1.94,5.3,2.68,7.79,2.23,4.06-.76,6.54-4.55,6.56-4.59l1.21-1.88.6,2.15c2.46,8.88-2.32,16-7.62,19.79-5.64,4-16.87,7.35-38.35.73-23.33-7.18-38.82-26.74-39-26.94ZM198.52,277c-2,0-4-.08-6.16-.25a104.8,104.8,0,0,1-38.65-11.15c5.82,6.05,18.13,17.13,34.28,22.1,20.71,6.37,31.34,3.28,36.61-.45,4.34-3.06,8.3-8.67,7.27-15.63a12.23,12.23,0,0,1-6.48,3.76,11.62,11.62,0,0,1-8.72-2.13c-3.19,2.38-10,3.75-18.15,3.75Zm0,0" transform="translate(-64.39 -0.19)"/></g><path class="cls-6" d="M102.48,235.46q.6,1,1.23,2a49,49,0,0,0,43.53,24.65,52,52,0,0,0,45.16-27.56,45.75,45.75,0,0,0,2.17-4.17c10.13-22.33,9.35-50.89-1.27-98.64-15.56-70-44.52-130-44.58-129.85-23,47.5-34.47,82.1-49,145.88-8.6,37.68-7.81,69.63,2.8,87.68Zm0,0" transform="translate(-64.39 -0.19)"/><path class="cls-4" d="M147.77.19l1.14.13c.88.1,1.15.67,1.6,1.58.22.46.55,1.15,1,2.05.73,1.56,1.94,4.18,3.53,7.77,2.69,6.08,6.91,15.92,11.71,28.32,8.38,21.64,20.06,55.07,28.14,91.36,5.51,24.81,8.2,43.61,8.45,59.18.26,16.09-2.06,28.95-7.29,40.48-.65,1.41-1.39,2.86-2.22,4.29-8.91,17-26.74,27.92-46.54,28.38A50,50,0,0,1,121.09,257a52.06,52.06,0,0,1-18.75-18.74c-.42-.68-.84-1.35-1.24-2-5.37-9.17-8.35-21.7-8.82-37.24-.46-15.26,1.51-32.62,5.84-51.61C113,82.5,124.42,48.34,147.28,1.21Zm-1.69,260.36h1.11c18.65-.45,35.43-10.68,43.79-26.72l0-.06a44,44,0,0,0,2.1-4c9.82-21.64,9.44-49-1.38-97.63C178.15,71,154.62,18.3,148.71,5.62,127,51,115.7,84.87,101.24,148.13c-8.57,37.54-7.62,69.07,2.62,86.52.38.66.78,1.31,1.19,1.94l0,.06c8.78,15,24,23.89,41,23.89Zm0,0" transform="translate(-64.39 -0.19)"/><path class="cls-4" d="M132.39,216H95.62v-2.6h36.77Zm69.34-20H170.28v-4.8h31.45Zm-75.66-31H96.91v-4.59h29.16Zm6.73-52.9H109.41v-2.8H132.8Zm47.43-26.53H163.49v-2.8h16.74Zm13.63,51.33H154.92v-2.79h38.94Zm0,0" transform="translate(-64.39 -0.19)"/></svg>