<svg id="图层_1" data-name="图层 1" xmlns="http://www.w3.org/2000/svg" xmlns:xlink="http://www.w3.org/1999/xlink" viewBox="0 0 286.57 286.57"><defs><style>.cls-1{fill:none;}.cls-2{clip-path:url(#clip-path);}.cls-3{fill:#595757;}.cls-4{fill:#ffdb00;}.cls-5{fill:#fff;}</style><clipPath id="clip-path" transform="translate(-6.14 -7.42)"><rect class="cls-1" x="6.14" y="7.42" width="286.61" height="286.92"/></clipPath></defs><title>coin</title><g class="cls-2"><path class="cls-3" d="M149.42,7.42c78.92,0,143.29,64.36,143.29,143.28S228.34,294,149.42,294,6.14,229.62,6.14,150.7,70.5,7.42,149.42,7.42Zm0,0" transform="translate(-6.14 -7.42)"/></g><path class="cls-4" d="M149.42,20.15c-71.9,0-130.56,58.65-130.56,130.56S77.52,281.26,149.42,281.26,280,222.62,280,150.71,221.33,20.15,149.42,20.15Zm0,0" transform="translate(-6.14 -7.42)"/><path class="cls-3" d="M111.13,154.23l-28-42.41h0C71.29,93.85,71.24,78.68,77,68.19A29.22,29.22,0,0,1,90.24,55.74,31.51,31.51,0,0,1,108,53.07c11.66,1.62,23,9.74,27.88,25.83l-.09-.24,13.65,39.28,13.69-39.28-.1.24c4.89-16.09,16.22-24.2,27.89-25.83a31.51,31.51,0,0,1,17.72,2.67,29.22,29.22,0,0,1,13.28,12.45c5.73,10.49,5.67,25.66-6.21,43.63l-28,42.39,30.75,47-.25-.32a40.33,40.33,0,0,1,5.17,9,34.55,34.55,0,0,1,2.46,9.77l.05.87q-.51,13.29-9.07,20.64-8.12,7-22.74,7.51H104.77q-14.59-.53-22.73-7.51Q73.49,233.82,73,220.5l.05-.87a35.43,35.43,0,0,1,2.46-9.76A40.64,40.64,0,0,1,80.53,201l-.13.17Zm0,0" transform="translate(-6.14 -7.42)"/><path class="cls-5" d="M124.07,157.68l-33,50.46-.26.32a28.54,28.54,0,0,0-3.58,6.23,22.32,22.32,0,0,0-1.51,5.61c.26,5,1.79,8.78,4.6,11.18,3.14,2.7,8.13,4.18,14.92,4.43h88.4c6.8-.25,11.78-1.74,14.92-4.43,2.81-2.4,4.34-6.13,4.59-11.16a22.38,22.38,0,0,0-1.5-5.64,28.12,28.12,0,0,0-3.59-6.22l-.25-.32-33-50.46a8.09,8.09,0,0,1,0-7l30.28-45.9c8.84-13.37,9.34-23.81,5.66-30.55a16.64,16.64,0,0,0-7.56-7,18.8,18.8,0,0,0-10.56-1.58c-7.16,1-14.21,6.3-17.44,16.94l-.1.25-19.68,56.5c-1.87,5.34-10.13,5.34-12,0l-19.64-56.5-.1-.25c-3.23-10.64-10.28-15.94-17.45-16.94a18.87,18.87,0,0,0-10.55,1.58,16.51,16.51,0,0,0-7.56,7C84.43,81,84.93,91.43,93.77,104.8h0l30.28,45.9a8.16,8.16,0,0,1,0,7Zm0,0" transform="translate(-6.14 -7.42)"/></svg>