<svg id="图层_1" data-name="图层 1" xmlns="http://www.w3.org/2000/svg" xmlns:xlink="http://www.w3.org/1999/xlink" viewBox="0 0 255.68 255.68"><defs><style>.cls-1{fill:none;}.cls-2{fill:#fdfeff;}.cls-3{clip-path:url(#clip-path);}.cls-4{fill:#ff4d94;}</style><clipPath id="clip-path" transform="translate(-21.9 -22.5)"><rect class="cls-1" x="21.95" y="22.24" width="255.94" height="256.32"/></clipPath></defs><title>female</title><polygon class="cls-2" points="210.9 32.15 47.1 32.15 47.1 92.5 40.1 92.5 40.1 98.75 27.3 98.75 27.3 156.35 40.1 156.35 40.1 216.04 84.1 216.04 84.1 224.5 206.1 224.5 206.1 127.55 210.9 127.55 210.9 32.15"/><g class="cls-3"><path class="cls-4" d="M149.74,22.5A127.84,127.84,0,1,0,277.58,150.34,127.85,127.85,0,0,0,149.74,22.5Zm64,199H165.58v24H133.87v-24H85.74v-32h48.13v-2a63.95,63.95,0,1,1,31.68,0v2h48.13v32Zm0,0" transform="translate(-21.9 -22.5)"/></g><path class="cls-4" d="M172.27,102.69a32,32,0,1,0,0,45.28,32,32,0,0,0,0-45.28Zm0,0" transform="translate(-21.9 -22.5)"/></svg>