<svg id="图层_1" data-name="图层 1" xmlns="http://www.w3.org/2000/svg" xmlns:xlink="http://www.w3.org/1999/xlink" viewBox="0 0 255.81 255.81"><defs><style>.cls-1{fill:none;}.cls-2{fill:#fdfeff;}.cls-3{clip-path:url(#clip-path);}.cls-4{fill:#0091ff;}</style><clipPath id="clip-path" transform="translate(-21.9 -22.37)"><rect class="cls-1" x="21.95" y="22.24" width="255.94" height="256.32"/></clipPath></defs><title>nan</title><polygon class="cls-2" points="219.1 45.63 37.1 45.63 37.1 119.63 15.1 119.63 15.1 183.63 41.1 183.63 41.1 210.63 55.1 210.63 55.1 228.63 98.1 228.63 98.1 226.63 182.1 226.63 182.1 151.63 219.1 151.63 219.1 45.63"/><g class="cls-3"><path class="cls-4" d="M149.81,22.37a127.91,127.91,0,1,0,127.9,127.9,127.92,127.92,0,0,0-127.9-127.9ZM227.12,109H227v56.13H195V136.32l-14.91,15.9a63.91,63.91,0,1,1-25.34-26.75L170.22,109H139V77.12h88.1Zm0,0" transform="translate(-21.9 -22.37)"/></g><path class="cls-4" d="M122.93,149.15a32,32,0,1,0,31.9,32,32,32,0,0,0-31.9-32Zm0,0" transform="translate(-21.9 -22.37)"/></svg>