<svg id="图层_1" data-name="图层 1" xmlns="http://www.w3.org/2000/svg" viewBox="0 0 312.35 208.57"><title>unknow_gender</title><path d="M255.14,98.27,211.39,142a56.27,56.27,0,0,1,.42,6.86,62.51,62.51,0,0,1-62.46,62.33,57.53,57.53,0,0,1-6.82-.41L115.07,238.2a144,144,0,0,0,34.41,4c69.69,0,120.9-55.92,156.13-92.62a406.64,406.64,0,0,0-50.47-51.34ZM242.65,46.43l-26,25.94a144.65,144.65,0,0,0-67.35-17.2c-57.07,0-101.54,35.69-156.09,93.62C19.07,176,42.64,201.41,70.14,218.94L53.07,236l19,19L261.64,65.42ZM87.07,148.83a62.23,62.23,0,0,1,101.54-48.36l-18.31,18.3a36.39,36.39,0,0,0-50.74,50.79L101,188.28a61.89,61.89,0,0,1-14.09-39.45Zm0,0" transform="translate(6.74 -46.43)"/></svg>