<svg id="图层_1" data-name="图层 1" xmlns="http://www.w3.org/2000/svg" xmlns:xlink="http://www.w3.org/1999/xlink" viewBox="0 0 343.7 760.91"><defs><style>.cls-1{fill:none;}.cls-2{fill:#efeeed;}.cls-3{fill:#fff;}.cls-4{fill:#ffc239;}.cls-5{clip-path:url(#clip-path);}.cls-6{fill:#ff9640;}.cls-7{fill:#1d7f0b;}</style><clipPath id="clip-path" transform="translate(22 230.11)"><rect class="cls-1" x="-22" y="-230" width="343.92" height="761.76"/></clipPath></defs><title>tuzi</title><path class="cls-2" d="M257,526.24c-11.12,0-19.52-10.4-26.32-18.8-2.24-2.8-5.6-6.88-7.28-8-10.88,8.4-27.36,13.36-44.24,13.36s-31.6-4.8-41.76-13.44l-.08-.08c-2.24,0-8.08,6.16-11.6,9.84-5.76,6.08-11.76,12.4-18.08,13.76a17.4,17.4,0,0,1-4,.4c-13,0-19.92-12.88-26.64-25.28-2.24-4.16-4.56-8.4-7-12-27.84-41.12-24.24-107.12-19.6-142.8C57.06,291.84,73.78,238.4,93.06,207l1.36-2.16,146.4,1.52,1.36,1.92c31.44,46.24,49.68,90.8,55.68,136.16,5.28,40.16,1.44,82.24-12.24,132.48-9.2,33.92-17.92,49-28.16,49.2Zm0,0" transform="translate(22 230.11)"/><path d="M96.66,209.44,238.18,211c64.72,95.2,67.44,174.4,42.88,264.88-4.4,16.16-13.36,45.76-23.92,45.84H257c-15.2,0-26.48-27-33.84-27a3.19,3.19,0,0,0-1.92.72c-10.32,8.24-26.24,12.88-42.08,12.88-14.48,0-28.88-3.84-38.88-12.4a4.44,4.44,0,0,0-3-1.12c-8.4,0-20.72,21.6-30.64,23.68a14.76,14.76,0,0,1-3.12.32c-14.08,0-20.4-21.2-29.92-35.28-45-66.24-13.28-214.8,23-274m-5-9L89,204.72c-19.52,31.84-36.56,86-43.28,137.92-3.76,29-4.32,55.68-1.6,79.44,3.12,27.28,10.48,49.6,21.92,66.48,2.32,3.44,4.48,7.44,6.8,11.6,3.28,6.08,6.72,12.32,10.88,17.28,5.76,6.8,12.4,10.32,19.76,10.32a26.68,26.68,0,0,0,5-.48c7.68-1.6,14.16-8.4,20.4-15a86.49,86.49,0,0,1,7.84-7.6c10.88,8.24,25.76,12.72,42.4,12.72,16.4,0,32.4-4.48,43.84-12.08,1.36,1.52,3,3.52,4.24,5,7,8.64,16.56,20.48,29.84,20.48h.24c11.44-.16,18.24-12.8,22.4-22.32,3.36-7.68,6.64-17.52,10.08-30.16,13.84-50.8,17.68-93.44,12.32-134.24C295.94,298,277.46,252.8,245.62,206L243,202.08l-4.72-.08L96.74,200.48Zm0,0" transform="translate(22 230.11)"/><path class="cls-3" d="M276.74,461.28c21.52-90.16,10-169-46.64-263.84l-123.84-1.52C74.5,254.88,44.66,408.16,84,474.16c8.4,14.08,12.72,32.72,25,32.72,8.88,0,25.36-26.72,32.72-26.8,3,0,14.24,16.48,34,16.16,26.56-.4,35-15.92,41.2-16.24,6.48-.32,23.52,26.88,36.8,26.88s19.12-29.52,23-45.6Zm0,0" transform="translate(22 230.11)"/><path class="cls-4" d="M228.34,349c-5.12,33.36-15.2,75.76-55,75.6-42.72-.24-55.2-51-57.44-83.12C113.7,310,121.38,283,171.06,283c54.64.08,62.48,32.48,57.28,65.92Zm0,0" transform="translate(22 230.11)"/><g class="cls-5"><path class="cls-3" d="M206.34-53.76c5.6-56.16,33.84-131.2,55.92-166.32,4.8-7.68,15.84-7.36,18.64,1.2,13.68,41,35.52,132.64-4.8,219-31.68-51.92-69.76-53.84-69.76-53.84Zm0,0" transform="translate(22 230.11)"/><path d="M276.66,9.6l-4.4-7.12C242.18-46.88,206.5-49.2,206.1-49.28l-4.72-.24.48-4.72c5.52-55.6,33.68-131.84,56.56-168.24A15.74,15.74,0,0,1,273.54-230a13.94,13.94,0,0,1,11.68,9.68,365.1,365.1,0,0,1,18.08,93.6c2.56,47-5.2,90.32-23,128.64ZM211.3-57.6c11,2.16,38.8,11,64.08,48.32,14.88-35,21.2-74.32,18.88-116.8a354.8,354.8,0,0,0-17.6-91.28,4.87,4.87,0,0,0-4.24-3.6,6.72,6.72,0,0,0-6.4,3.36c-21.68,34.48-48.4,106.08-54.72,160Zm0,0" transform="translate(22 230.11)"/></g><path class="cls-6" d="M230.26-49.36c2.24-10.32,7.68-58.32,20.88-63.36,20.64-8,6.32,86.16,1.68,81.12" transform="translate(22 230.11)"/><path d="M253.14-27a4.82,4.82,0,0,1-3.68-1.68,4.45,4.45,0,0,1,.32-6.32,6.67,6.67,0,0,1,1-.64c1.52-4.08,4.48-17.2,5.92-34.64,2-23.2-.24-35-2.72-38-.4-.48-.48-.56-1.28-.24-1.2.48-5.36,3.2-10.08,19.84-3,10.88-5.2,23.68-6.56,32.08-.56,3.6-1,6.4-1.44,8.24a4.49,4.49,0,0,1-5.36,3.44,4.49,4.49,0,0,1-3.44-5.36c.32-1.6.8-4.4,1.36-7.84,4.48-27.12,9.92-54,22.24-58.8,5.28-2.08,10.16-.08,13,5.28,5.44,10.24,4.08,33.36,2.72,46.24a231.43,231.43,0,0,1-3.6,23.44c-2.32,11-4,12.88-5.6,14a4.25,4.25,0,0,1-2.8,1Zm0,0" transform="translate(22 230.11)"/><g class="cls-5"><path class="cls-3" d="M52.18-3.84s-71-32.56-69.68-201.44a9.82,9.82,0,0,1,14.88-8.16c24.8,15,75.44,57.92,96.32,164.24" transform="translate(22 230.11)"/><path d="M50.34.24c-.8-.32-19.2-9-37.28-39.2C2.58-56.32-5.66-77.36-11.5-101.52c-7.28-30-10.8-64.88-10.48-103.76a13.85,13.85,0,0,1,7.28-12.16,14.23,14.23,0,0,1,14.48.24c12.88,7.84,32.24,22.72,51,49.12C73-136.72,88.9-97,98.18-50.08l-8.8,1.76c-9-45.76-24.4-84.24-45.92-114.56C25.62-188.08,7.3-202.16-4.86-209.52a5.31,5.31,0,0,0-5.44-.08,5,5,0,0,0-2.64,4.4c-.4,47.2,5.12,113.44,33.2,160.88C37-16.16,53.94-7.92,54.1-7.84Zm0,0" transform="translate(22 230.11)"/></g><path class="cls-6" d="M60.26-15C48.66-33,41-53.36,38.1-78.8,35.46-101.6,48-99.92,55.78-88.16,66.5-71.84,66.9-64,79.54-39" transform="translate(22 230.11)"/><g class="cls-5"><path d="M60.26-10.48a4.29,4.29,0,0,1-3.76-2.08C43.78-32.4,36.5-53.28,33.62-78.32c-1.76-15.52,3-20.64,7.44-22.24,5.92-2.16,13.12,1.76,18.48,9.92,6.4,9.76,9.28,16.64,13,25.44,2.72,6.48,5.76,13.76,11,24.24a4.43,4.43,0,0,1-2,6,4.43,4.43,0,0,1-6-2C70.1-47.68,66.9-55.52,64.26-61.76,60.66-70.4,58-76.64,52.1-85.68c-3.52-5.28-7-6.72-7.92-6.4-.64.24-2.64,3-1.52,12.8C45.38-55.68,52.18-36,64.18-17.36a4.53,4.53,0,0,1-1.36,6.24,6.35,6.35,0,0,1-2.56.64Zm0,0" transform="translate(22 230.11)"/><path class="cls-3" d="M30.42,84.64C19.86,123-.54,169.92,59.86,196.4s141.6,33.76,199.76,6.24c42.88-20.32,78.56-48.4,43.36-139-33.92-87.2-43.36-117.12-141.6-123.36-128.56,0-119.28,101.6-131,144.32Zm0,0" transform="translate(22 230.11)"/><path d="M173.46,224.64c-4.32,0-8.72-.08-13.12-.32A297.47,297.47,0,0,1,58,200.56C-.54,174.8,12.5,130,23.06,94c1-3.68,2.08-7.12,3-10.56,1.84-6.8,3.2-15.44,4.64-24.64,3.84-24.48,8.64-55,26.48-79.6,21-29.2,55.12-43.36,104.08-43.36h.32c99,6.32,111,37.44,143.36,120.56l2.16,5.6c37.28,95.84-4,125-45.6,144.64-25,11.84-55.12,18-88.08,18ZM34.74,85.76c-1,3.52-2,7.2-3,10.72-10.48,36-21.36,73.28,30,95.84a286.36,286.36,0,0,0,99.12,23c36.56,1.76,70.08-4,96.88-16.72,19.68-9.36,39.2-20.72,48.8-41,10.4-22,7.92-52.16-7.68-92.24l-2.16-5.6c-16-41.2-26.56-68.4-44.72-86.08-18-17.52-44.24-25.84-90.72-28.8-45.84,0-77.44,13-96.64,39.6C48,7.44,43.46,36.72,39.7,60.24c-1.6,9.36-3,18.32-5,25.52Zm0,0" transform="translate(22 230.11)"/></g><path class="cls-2" d="M61.46,192.72a285.16,285.16,0,0,0,112,23.36c31.6,0,60.8-5.84,84.4-17,19.76-9.36,39.92-20.56,49-41.2,3.6-8.24,5.36-17.6,5.44-28.16C292.5,164.8,265.46,201.52,167.86,205,83.94,207.84,46,146.64,29.7,103.28c-9.76,34-16.8,68.16,31.76,89.44Zm0,0" transform="translate(22 230.11)"/><path class="cls-4" d="M244.5,103.92a573.26,573.26,0,0,0,65.44,1.36A297.37,297.37,0,0,0,299.22,65.2l-2.16-5.6c-16-41.28-26.56-68.56-44.8-86.24-18.08-17.6-44.48-26-91-29a188.48,188.48,0,0,0-26.8,1.76C157.62,10.56,179.94,99,244.5,103.92Zm0,0" transform="translate(22 230.11)"/><path d="M88.42,90.72c0,9.37,6.27,17,14,17s14-7.59,14-17-6.27-17-14-17-14,7.59-14,17Zm0,0" transform="translate(22 230.11)"/><path class="cls-7" d="M160.26,193.36c11.28.4,24-17.2,35.2-35.12,3.52,15.36,11,17.2,11,17.2s11.84-5.28,14.08-17.2c.08,23,1.28,23,7.68,26.4s17.36,2.88,23-9.2c-10,21.6-13.12,34-13.12,34" transform="translate(22 230.11)"/><path d="M238.1,213.92a5.4,5.4,0,0,1-1.12-.16,4.55,4.55,0,0,1-3.28-5.44,150.55,150.55,0,0,1,6.08-17.76A20.49,20.49,0,0,1,226,188.64l-.48-.24c-5.84-3.12-8.16-5.68-9-14.48a32.84,32.84,0,0,1-8.24,5.68,4.44,4.44,0,0,1-2.88.24c-.8-.24-6.72-2-11.2-11.28-10.8,16.32-22.32,29.76-34.08,29.28a4.48,4.48,0,0,1-4.32-4.64,4.53,4.53,0,0,1,4.64-4.32h.24c10.4,0,25.84-24.8,31-33a4.63,4.63,0,0,1,4.56-2.08,4.54,4.54,0,0,1,3.6,3.44c1.84,8.24,4.88,11.68,6.64,13.12,2.88-1.84,8.4-6.08,9.6-12.88a4.47,4.47,0,0,1,8.88.8c0,9.44.24,15.92,1.2,19,.48,1.52.8,1.76,3.6,3.2l.56.24a11.23,11.23,0,0,0,8.8.72c3.36-1.12,6.08-3.76,8-7.92a4.51,4.51,0,0,1,8.16,3.84c-9.68,20.88-12.8,33-12.88,33.2a4.29,4.29,0,0,1-4.24,3.36Zm0,0" transform="translate(22 230.11)"/><path class="cls-6" d="M160.26,193.92c-8.08,43-22.24,185-5.68,193.2s83.36-158.16,83.52-180c-25.92-10.64-49.36-15.44-77.84-13.2Zm0,0" transform="translate(22 230.11)"/><path d="M155.86,391.92a6.62,6.62,0,0,1-3.28-.8c-5.68-2.8-8.64-12.24-9.76-31.36-.8-14.24-.56-33.2.88-56.48,2.56-43.12,8.16-89,12.16-110.24a4.51,4.51,0,0,1,4.08-3.68c27.52-2.24,51.36,1.84,79.92,13.52a4.61,4.61,0,0,1,2.8,4.16C242.58,219,226,264.48,210.5,301.2c-12.48,29.6-35.6,80.48-49.44,89a9.76,9.76,0,0,1-5.2,1.68Zm8.24-193.76c-3.84,21.84-8.88,64.16-11.36,104.32-4,65.28,1.84,77.92,3.44,80.16,1.6-1,6.8-5.28,17.52-24.8,7.92-14.32,17.2-33.84,26.8-56.4,17.92-42,30.56-79,32.72-91.52-24.48-9.52-45.6-13.2-69.12-11.76Zm0,0" transform="translate(22 230.11)"/><path d="M230.5,90.72c0,9.37,6.27,17,14,17s14-7.59,14-17-6.27-17-14-17-14,7.59-14,17Zm0,0" transform="translate(22 230.11)"/><path d="M161.38,151.44c-6.56,0-11.84-5.44-16.16-10.88a4.5,4.5,0,0,1,7-5.6c4,5,7.12,7.52,9.2,7.52,1.44,0,4-1.36,8.24-7.28a4.36,4.36,0,0,1,3.36-1.84,4.44,4.44,0,0,1,3.6,1.44c4.48,4.8,9,7.2,10.72,6.72,1-.24,1.92-2.08,2.56-4.72a4.52,4.52,0,0,1,8.8,2.08c-1.92,7.84-5.92,10.48-9,11.28-5.76,1.52-11.68-2.16-15.84-5.68-3.2,3.68-7.28,6.88-12.16,7a.48.48,0,0,0-.32-.08Zm0,0" transform="translate(22 230.11)"/><path class="cls-3" d="M240.66,253.12s-66,58.24-47.2,68.72c6.8,3.76,68.56-25,68.56-25" transform="translate(22 230.11)"/><path d="M195.14,326.64a6.58,6.58,0,0,1-3.84-1,10.58,10.58,0,0,1-5.6-8.4c-1.28-11.6,14.08-29.52,25.68-42,12.88-13.76,26.16-25.52,26.24-25.6a4.45,4.45,0,0,1,6.32.4,4.52,4.52,0,0,1-.4,6.32c-.16.08-13.12,11.6-25.68,25-22.56,24.08-23.52,32.72-23.28,34.8a1.51,1.51,0,0,0,.72,1.28h.32c6.8,0,38.24-12.72,64.56-25a4.51,4.51,0,0,1,3.84,8.16c-.16.08-15.68,7.36-31.92,14-23.36,9.84-32.64,12-37,12Zm0,0" transform="translate(22 230.11)"/><path class="cls-3" d="M88.5,312.8s73.52,45.36,83,26c3.44-7-73.12-70.16-73.12-70.16" transform="translate(22 230.11)"/><path d="M161.54,348.08c-23.68,0-69.76-28-75.44-31.44a4.47,4.47,0,0,1,4.72-7.6c.16.08,14.56,9,31.2,17,28.16,13.68,39,13.84,42.88,12.72a5.12,5.12,0,0,0,1.76-.88c-4.08-6.88-30.64-32.24-71.2-65.76a4.49,4.49,0,0,1,5.68-7c.16.16,19.44,16,37.92,32.56,11,9.76,19.52,17.84,25.52,24,10.08,10.4,12.72,15,10.8,19a12.49,12.49,0,0,1-8.08,6.56,21,21,0,0,1-5.76.72Zm0,0" transform="translate(22 230.11)"/><path d="M165.62,295.6a21.67,21.67,0,0,1-15.44-6.4,2.32,2.32,0,0,1,3.44-3.12,17.22,17.22,0,0,0,16.08,4.4,2.34,2.34,0,0,1,1,4.56,23.83,23.83,0,0,1-5.12.56Zm0,0" transform="translate(22 230.11)"/><path d="M171,280.32c-8.64,0-19.76-6.24-20.24-6.56a2.35,2.35,0,0,1,2.32-4.08c3.52,2,14,7,19.84,5.76a2.32,2.32,0,1,1,.88,4.56,10,10,0,0,1-2.8.32Zm0,0" transform="translate(22 230.11)"/><path d="M174.82,265.12c-8.64,0-19.76-6.24-20.24-6.56a2.35,2.35,0,1,1,2.32-4.08c3.52,2,14,7,19.84,5.76a2.32,2.32,0,1,1,.88,4.56,10.74,10.74,0,0,1-2.8.32Zm0,0" transform="translate(22 230.11)"/></svg>