<svg id="图层_1" data-name="图层 1" xmlns="http://www.w3.org/2000/svg" viewBox="0 0 74.23 119.44"><defs><style>.cls-1{fill:#e3e1e2;}.cls-2{font-size:21px;font-family:FZZYSJW--GB1-0, FZYaSongS-M-GB;}</style></defs><title>black_peach5</title><rect class="cls-1" width="74.23" height="119.44" rx="8.39"/><text class="cls-2" transform="translate(3.75 27.36)">5</text><path d="M16.47,41.7h0v0h0a2.75,2.75,0,0,0-1.08-2.12l-.06-.11h0l-4.19-8.19v-.09l0,.05,0-.05v.09L6.9,39.42h0l0,.1A2.79,2.79,0,0,0,5.73,41.7h0v0a2.76,2.76,0,0,0,4.72,2l.68-1.18.75,1.29a2.76,2.76,0,0,0,4.6-2.07s0,0,0,0Z" transform="translate(-0.51 -0.42)"/><polygon points="9.94 43.28 8.57 45.65 12.68 45.65 11.37 43.39 10.63 42.1 9.94 43.28"/><path d="M69.88,85.45h.06l0-.1v0l0,0a11,11,0,0,0-4.33-8.46l-.23-.45h0l-.08,0L48.52,43.58v-.37l-.09.19-.1-.19v.37L31.58,76.33l-.08,0h0l-.2.39a11,11,0,0,0-4.42,8.68h0s0,.1,0,.16a11.05,11.05,0,0,0,18.86,7.84l2.74-4.73,3,5.17a11.06,11.06,0,0,0,18.4-8.28s0-.1,0-.15Z" transform="translate(-0.51 -0.42)"/><polygon points="45.27 93.03 39.8 102.5 56.2 102.5 50.99 93.47 48 88.3 45.27 93.03"/></svg>