<svg id="图层_1" data-name="图层 1" xmlns="http://www.w3.org/2000/svg" viewBox="0 0 74.23 119.44"><defs><style>.cls-1{fill:#e3e1e2;}.cls-2{font-size:21px;font-family:FZZYSJW--GB1-0, FZYaSongS-M-GB;}</style></defs><title>club5</title><rect class="cls-1" width="74.23" height="119.44" rx="8.39"/><text class="cls-2" transform="translate(3.75 26.36)">5</text><path d="M44,88.23l-.91,1.66L37.3,100.35H54.63l-5.51-10-1.24-2.26A13.7,13.7,0,0,1,46,85,14.1,14.1,0,0,1,44,88.23Z" transform="translate(-0.51 -0.42)"/><path d="M44.71,79.14a14.19,14.19,0,0,1,1.15-5.62h0a13.25,13.25,0,0,1-12.06-8.1c-7.29,0-13.19,6.24-13.19,13.87s6,13.88,13.28,13.88A13,13,0,0,0,44,88.23,14.1,14.1,0,0,0,46,85,14.15,14.15,0,0,1,44.71,79.14Z" transform="translate(-0.51 -0.42)"/><path d="M58,65.26h0a13.26,13.26,0,0,1-12.1,8.25A14.29,14.29,0,0,0,46,85a13.7,13.7,0,0,0,1.92,3.13A13,13,0,0,0,58,93c7.33,0,13.27-6.21,13.27-13.88S65.32,65.26,58,65.26Z" transform="translate(-0.51 -0.42)"/><path d="M45.83,73.52h0A13.26,13.26,0,0,0,58,65.27a14.37,14.37,0,0,0,1.14-5.63c0-7.66-5.94-13.87-13.27-13.87S32.55,52,32.55,59.64a14.38,14.38,0,0,0,1.22,5.78A13.25,13.25,0,0,0,45.83,73.52Z" transform="translate(-0.51 -0.42)"/><path d="M10.14,43.88l-.27.5L8.14,47.52h5.2l-1.66-3-.37-.67a4.33,4.33,0,0,1-.58-.94A4,4,0,0,1,10.14,43.88Z" transform="translate(-0.51 -0.42)"/><path d="M10.36,41.16a4.25,4.25,0,0,1,.34-1.69h0A4,4,0,0,1,7.08,37a4.16,4.16,0,0,0,0,8.32,3.88,3.88,0,0,0,3-1.48,4,4,0,0,0,.59-1A4.46,4.46,0,0,1,10.36,41.16Z" transform="translate(-0.51 -0.42)"/><path d="M14.34,37h0a4,4,0,0,1-3.63,2.48,4.25,4.25,0,0,0-.34,1.69,4.46,4.46,0,0,0,.37,1.75,4.33,4.33,0,0,0,.58.94,3.9,3.9,0,0,0,3,1.47,4.17,4.17,0,0,0,0-8.33Z" transform="translate(-0.51 -0.42)"/><path d="M10.7,39.47h0A4,4,0,0,0,14.33,37a4.24,4.24,0,0,0,.35-1.68,4.09,4.09,0,0,0-4-4.17,4.09,4.09,0,0,0-4,4.17A4.36,4.36,0,0,0,7.08,37,4,4,0,0,0,10.7,39.47Z" transform="translate(-0.51 -0.42)"/></svg>