<svg id="图层_1" data-name="图层 1" xmlns="http://www.w3.org/2000/svg" viewBox="0 0 74.23 119.44"><defs><style>.cls-1{fill:#e3e1e2;}.cls-2{font-size:21px;font-family:FZZYSJW--GB1-0, FZYaSongS-M-GB;}.cls-2,.cls-3{fill:red;}</style></defs><title>red_heart6</title><rect class="cls-1" width="74.23" height="119.44" rx="8.39"/><text class="cls-2" transform="translate(4.75 25.36)">6</text><path class="cls-3" d="M68.18,57.08v-.15a11.39,11.39,0,0,0-22.12-3.82,11.39,11.39,0,0,0-22.12,3.82s0,.1,0,.15h-.06l.06.11s0,0,0,0l0,0A11.4,11.4,0,0,0,28.42,66l.24.46h0l.08,0,17.24,33.72v.37l.1-.19.1.19v-.37L63.38,66.47l.08,0h0l.2-.4a11.36,11.36,0,0,0,4.55-8.93v0Z" transform="translate(-0.51 -0.42)"/><path class="cls-3" d="M17.66,34.42v-.05A3.41,3.41,0,0,0,11,33.22a3.42,3.42,0,0,0-6.64,1.15v.05h0l0,0h0a3.42,3.42,0,0,0,1.34,2.61l.07.14h0L11,47.35v.11l0-.06,0,.06v-.11l5.17-10.12h0l.06-.12a3.4,3.4,0,0,0,1.37-2.68Z" transform="translate(-0.51 -0.42)"/></svg>